<?xml version="1.0" ?><!DOCTYPE svg  PUBLIC '-//W3C//DTD SVG 1.1//EN'  'http://www.w3.org/Graphics/SVG/1.1/DTD/svg11.dtd'>
<svg enable-background="new 0 0 140 140" height="140px" id="Layer_1" version="1.1" viewBox="0 0 140 140" width="140px" xml:space="preserve" xmlns="http://www.w3.org/2000/svg" xmlns:xlink="http://www.w3.org/1999/xlink">
<path d="M34.001,62c0-2.2-1.801-4-4-4h-20v26h121.998c1.199,0,2,0.801,2,2s-0.801,2-2,2H10.001v22c0,2.199,1.8,4,4,4h117.998  c1.199,0,2,0.799,2,2c0,1.199-0.801,2-2,2H14.001c-4.4,0-8-3.6-8-8V54c0-17.6,25-32,55.999-32c0.601,0,1.2,0.2,1.6,0.4l69.399,31.8  c0.8,0.399,1,1.2,1,1.8c0,1.2-0.801,2-2,2H66c-2.2,0-4,1.8-4,4v4c0,3.399-2.601,6-6,6c-3.2,0-5.601-2.2-6-5.2V70c0,4.4-3.601,8-8,8  s-7.999-3.6-7.999-8V62z M58,62c0-4.4,3.601-8,8-8h56.999l-61.6-28c-28.6,0.2-51.398,12.8-51.398,28h20C34.4,54,38,57.6,38,62v8  c0,2.201,1.8,4,4,4s4-1.799,4-4v-4c0-2.2,1.8-4,4-4s4,1.8,4,4c0,1.2,0.8,2,2,2s2-0.8,2-2V62z"/></svg>
